<svg width="50" height="50" viewBox="0 0 50 50" fill="none" xmlns="http://www.w3.org/2000/svg">
<path fill-rule="evenodd" clip-rule="evenodd" d="M7.75 14.5837C7.75 11.6886 8.47398 9.5052 9.82315 8.05225C11.0921 6.68567 13.1094 5.75608 16.2084 5.67305V20.542C16.2084 22.7989 18.864 23.8758 20.4657 22.4243L20.4657 22.4243L20.4754 22.4154L25 18.2418L29.5247 22.4154L29.5246 22.4154L29.5344 22.4243C31.1361 23.8758 33.7917 22.7989 33.7917 20.542V5.67305C36.8906 5.7561 38.9079 6.68568 40.1768 8.05225C41.526 9.5052 42.25 11.6886 42.25 14.5837V35.417C42.25 38.3121 41.526 40.4955 40.1768 41.9484C38.8464 43.3812 36.6933 44.3337 33.3333 44.3337H16.6667C13.3067 44.3337 11.1536 43.3812 9.82315 41.9484C8.47398 40.4955 7.75 38.3121 7.75 35.417V14.5837ZM30.7917 5.66699H19.2084V19.5027L23.2703 15.756C23.7395 15.3175 24.3577 15.0735 25 15.0735C25.6424 15.0735 26.2607 15.3175 26.7298 15.756L30.7917 19.5027V5.66699ZM32.2917 2.66699H33.3333C37.2651 2.66699 40.3203 3.79789 42.3752 6.0109C44.4115 8.20378 45.25 11.2287 45.25 14.5837V35.417C45.25 38.7719 44.4115 41.7969 42.3752 43.9898C40.3203 46.2028 37.2651 47.3337 33.3333 47.3337H16.6667C12.7349 47.3337 9.67971 46.2028 7.62477 43.9898C5.58852 41.7969 4.75 38.7719 4.75 35.417V14.5837C4.75 11.2287 5.58852 8.20378 7.62477 6.0109C9.67971 3.79789 12.7349 2.66699 16.6667 2.66699H17.7084H32.2917ZM27.6042 27.667C26.7758 27.667 26.1042 28.3386 26.1042 29.167C26.1042 29.9954 26.7758 30.667 27.6042 30.667H36.4584C37.2868 30.667 37.9584 29.9954 37.9584 29.167C37.9584 28.3386 37.2868 27.667 36.4584 27.667H27.6042ZM18.75 36.0003C17.9216 36.0003 17.25 36.6719 17.25 37.5003C17.25 38.3288 17.9216 39.0003 18.75 39.0003H36.4584C37.2868 39.0003 37.9584 38.3288 37.9584 37.5003C37.9584 36.6719 37.2868 36.0003 36.4584 36.0003H18.75Z" fill="url(#paint0_linear_1420_11303)"/>
<defs>
<linearGradient id="paint0_linear_1420_11303" x1="17.5694" y1="47.3337" x2="31.1921" y2="47.3337" gradientUnits="userSpaceOnUse">
<stop stop-color="#FF5243"/>
<stop offset="1" stop-color="#DA20B1"/>
</linearGradient>
</defs>
</svg>
