<svg width="24" height="25" viewBox="0 0 24 25" fill="none" xmlns="http://www.w3.org/2000/svg">
<path fill-rule="evenodd" clip-rule="evenodd" d="M20.7801 5.70787C20.9206 5.84849 20.9994 6.03911 20.9994 6.23787C20.9994 6.43662 20.9206 6.62724 20.7801 6.76787L10.2801 18.2679C10.2095 18.3384 10.1255 18.3942 10.033 18.4319C9.9405 18.4696 9.84144 18.4884 9.74159 18.4873C9.64174 18.4862 9.54311 18.4651 9.45151 18.4254C9.3599 18.3856 9.27715 18.328 9.20811 18.2559L3.20811 12.5059C3.13694 12.4353 3.08063 12.3512 3.04251 12.2586C3.00438 12.1659 2.9852 12.0666 2.98612 11.9664C2.98703 11.8662 3.00801 11.7672 3.04782 11.6752C3.08763 11.5833 3.14546 11.5002 3.21789 11.431C3.29033 11.3618 3.37591 11.3077 3.46957 11.2721C3.56323 11.2365 3.66307 11.2201 3.76321 11.2237C3.86334 11.2273 3.96173 11.251 4.05257 11.2932C4.14342 11.3355 4.22486 11.3956 4.29211 11.4699L9.76211 16.6649L19.7201 5.70787C19.8607 5.56741 20.0514 5.48853 20.2501 5.48853C20.4489 5.48853 20.6395 5.56741 20.7801 5.70787Z" fill="#3BE260"/>
</svg>
