<svg width="50" height="50" viewBox="0 0 50 50" fill="none" xmlns="http://www.w3.org/2000/svg">
<path fill-rule="evenodd" clip-rule="evenodd" d="M23.229 45.5628C23.7498 45.8545 24.3748 46.0003 24.9998 46.0003C25.6248 46.0003 26.229 45.8753 26.729 45.5836C30.5415 43.4795 37.4165 41.2086 41.7082 40.6461L42.3957 40.5628C45.1457 40.2295 47.3957 37.6878 47.3957 34.8961V9.7503C47.3957 8.10447 46.7498 6.60447 45.5623 5.52113C44.3957 4.4378 42.8332 3.89613 41.3123 4.04197H41.0623C36.4582 4.4378 29.5415 6.77113 25.6248 9.22947L25.2915 9.4378C25.1665 9.5003 24.854 9.5003 24.7082 9.41697L24.2082 9.1253C20.2915 6.66697 13.3748 4.3753 8.7915 4.02113C7.1665 3.8753 5.62484 4.39613 4.43734 5.47947C3.24984 6.5628 2.604 8.0628 2.604 9.70863V34.8753C2.604 37.6461 4.854 40.2086 7.58317 40.542L8.18734 40.6253C12.479 41.1878 19.3332 43.4378 23.229 45.5628ZM6.5415 7.79197C7.02067 7.35447 7.62484 7.1253 8.2915 7.1253H8.5415C12.6248 7.45863 19.0415 9.58363 22.604 11.7711L23.104 12.0628C23.2106 12.1292 23.322 12.1891 23.4374 12.2427V42.1714C19.1917 40.107 12.865 38.1101 8.604 37.542L7.979 37.4586C6.7915 37.292 5.729 36.1045 5.729 34.8753V9.70863C5.729 8.95863 6.02067 8.27113 6.5415 7.79197ZM41.3123 37.542C37.0808 38.1037 30.8131 40.0789 26.5624 42.1519V12.2599C26.7067 12.1968 26.8461 12.1241 26.979 12.042L27.3123 11.8128C30.8123 9.6253 37.229 7.47947 41.2082 7.1253H41.4582C42.229 7.08363 42.9165 7.3128 43.4582 7.79197C43.979 8.29197 44.2707 8.95863 44.2707 9.72947V34.8753C44.2707 36.1045 43.2082 37.3128 42.0207 37.4586L41.3123 37.542ZM11.4583 19.2462H16.1458C16.9999 19.2462 17.7083 18.5378 17.7083 17.6837C17.7083 16.8295 16.9999 16.1212 16.1458 16.1212H11.4583C10.6041 16.1212 9.89575 16.8295 9.89575 17.6837C9.89575 18.5378 10.6041 19.2462 11.4583 19.2462ZM11.4583 25.4962H17.7083C18.5624 25.4962 19.2708 24.7878 19.2708 23.9337C19.2708 23.0795 18.5624 22.3712 17.7083 22.3712H11.4583C10.6041 22.3712 9.89575 23.0795 9.89575 23.9337C9.89575 24.7878 10.6041 25.4962 11.4583 25.4962Z" fill="url(#paint0_linear_1420_11307)"/>
<defs>
<linearGradient id="paint0_linear_1420_11307" x1="16.7819" y1="46.0003" x2="31.8482" y2="46.0003" gradientUnits="userSpaceOnUse">
<stop stop-color="#FF5243"/>
<stop offset="1" stop-color="#DA20B1"/>
</linearGradient>
</defs>
</svg>
