<svg width="42" height="43" viewBox="0 0 42 43" fill="none" xmlns="http://www.w3.org/2000/svg">
<path d="M21 0.5C32.5982 0.5 42 9.90181 42 21.5C42 33.0982 32.5982 42.5 21 42.5C9.40181 42.5 0 33.0982 0 21.5C0 9.90181 9.40181 0.5 21 0.5Z" fill="#1B1B1B"/>
<path d="M31.4639 9.73798H10.5426C9.82796 9.73798 9.24445 10.3215 9.24445 11.0361V31.9575C9.24445 32.6721 9.82796 33.2556 10.5426 33.2556H21.8064V24.1554H18.7446V20.6019H21.8064V17.9859C21.8064 14.9437 23.6619 13.2915 26.3696 13.2915C27.2875 13.2915 28.1989 13.3374 29.1102 13.4292V16.609H27.2285C25.7468 16.609 25.4714 17.3106 25.4714 18.3399V20.6019H28.9922L28.5332 24.1554H25.4714V33.2622H31.4639C32.1786 33.2622 32.7621 32.6787 32.7621 31.964V11.0427C32.7621 10.3215 32.1786 9.73798 31.4639 9.73798Z" fill="#D9D9D9"/>
</svg>
