<svg width="25" height="25" viewBox="0 0 25 25" fill="none" xmlns="http://www.w3.org/2000/svg">
<path fill-rule="evenodd" clip-rule="evenodd" d="M13.0447 22.8865C12.9386 22.9412 12.7861 22.9878 12.6667 22.9878C12.5474 22.9878 12.3948 22.9412 12.2887 22.8865C11.7381 22.5885 11.1972 22.2729 10.6667 21.9402C9.40162 21.1485 8.19485 20.2667 7.05575 19.3017C4.46675 17.0932 1.66675 13.8442 1.66675 10.0167V10.0157C1.66675 6.54712 4.49575 3.98779 7.40275 3.98779C9.69675 3.98779 11.5477 5.21683 12.6667 7.10049C13.7867 5.21683 15.6367 3.98779 17.9307 3.98779C20.8367 3.98779 23.6667 6.54612 23.6667 10.0167C23.6667 13.8442 20.8657 17.0942 18.2777 19.3017C16.6596 20.6719 14.9061 21.8731 13.0447 22.8865ZM3.16675 10.0167C3.16675 7.37617 5.32375 5.49151 7.40275 5.49151C9.50775 5.49151 11.2037 6.88395 11.9557 9.14354C12.0058 9.29287 12.1013 9.42269 12.2289 9.51466C12.3564 9.60663 12.5096 9.6561 12.6667 9.6561C12.8239 9.6561 12.9771 9.60663 13.1046 9.51466C13.2322 9.42269 13.3277 9.29287 13.3777 9.14354C14.1297 6.88395 15.8247 5.49151 17.9307 5.49151C20.0097 5.49151 22.1667 7.37617 22.1667 10.0167C22.1667 13.1314 19.8427 15.9915 17.3057 18.1568C16.0597 19.2205 14.8097 20.0756 13.8697 20.665C13.4007 20.9598 13.0107 21.1873 12.7397 21.3407L12.6667 21.3808L12.5937 21.3397C10.9757 20.4244 9.44695 19.3588 8.02775 18.1568C5.49075 15.9915 3.16675 13.1314 3.16675 10.0167Z" fill="#5B5B5B"/>
</svg>
