<svg width="24" height="25" viewBox="0 0 24 25" fill="none" xmlns="http://www.w3.org/2000/svg">
<path fill-rule="evenodd" clip-rule="evenodd" d="M16.9034 5.41207C16.1536 2.61459 13.3975 0.976723 10.9529 1.63155C9.65017 1.98051 8.68064 2.80242 8.06504 3.8563C7.00471 3.25123 5.75366 3.02425 4.4511 3.37316C2.00575 4.02818 0.439035 6.82481 1.18847 9.62085C1.98848 12.6056 4.66551 14.4613 6.7088 15.5092L6.71178 15.5107L6.71285 15.5112C6.89712 15.6049 7.08255 15.6959 7.2691 15.784C7.38775 16.8506 7.64264 17.8542 7.91617 18.7037L7.91696 18.7061C8.23663 19.6874 8.62616 20.6419 9.08199 21.5597C9.27344 21.9461 9.47721 22.3257 9.69315 22.6977L9.70098 22.7109L9.70489 22.7173C9.80955 22.8893 9.99861 23.1223 10.2702 23.279C10.5418 23.4358 10.8381 23.483 11.0395 23.4876L11.057 23.4878C12.5086 23.4872 13.9716 23.3338 15.4069 23.0302L15.4108 23.0294C17.6549 22.5462 20.722 21.4466 22.2676 18.7703C23.7162 16.2621 22.9258 13.1555 20.7339 11.8904C19.5659 11.2163 18.2989 11.1121 17.1181 11.4222C17.0007 10.9927 16.8298 10.5809 16.6034 10.1983C16.3635 10.8884 16.0628 11.5384 15.7431 12.1309C15.7651 12.2497 15.7821 12.3708 15.7939 12.4939C15.817 12.7351 15.9554 12.9503 16.1654 13.0715C16.3753 13.1927 16.6309 13.205 16.8515 13.1045C17.8899 12.6313 18.9957 12.6187 19.9839 13.1891C21.3818 13.9959 22.0486 16.1505 20.9686 18.0206C19.7591 20.1147 17.255 21.0983 15.0953 21.5634C13.7661 21.8445 12.4118 21.9868 11.0696 21.9883C11.0666 21.9881 11.0624 21.9877 11.0572 21.987C11.0488 21.9859 11.0399 21.9843 11.0317 21.9823C11.0273 21.9813 11.0237 21.9803 11.0208 21.9794L11.0159 21.9747L11.0128 21.9715L11.005 21.9629C11.0019 21.9592 10.9988 21.9554 10.9959 21.9516C10.9911 21.9453 10.988 21.9406 10.9867 21.9385C10.7888 21.5972 10.6015 21.2481 10.4257 20.8931C10.0028 20.0417 9.64088 19.1553 9.34364 18.243C9.16359 17.6837 9.00318 17.085 8.88746 16.468C8.77744 15.8815 8.70782 15.2785 8.70011 14.6772C8.68542 13.5329 8.89489 12.3946 9.47674 11.3871C10.5561 9.51808 12.7559 9.01725 14.1542 9.82435C14.4436 9.99136 14.6947 10.1921 14.908 10.421C15.344 10.8891 15.6215 11.475 15.7431 12.1309C16.0628 11.5384 16.3635 10.8884 16.6034 10.1983C17.1144 8.72813 17.3495 7.07623 16.9034 5.41207ZM15.4545 5.80017C14.8955 3.71447 12.9001 2.66239 11.3411 3.07999C10.239 3.37521 9.466 4.16577 9.06651 5.23426C8.98162 5.46129 8.7922 5.63329 8.55802 5.696C8.32384 5.7587 8.07378 5.70438 7.88675 5.55016C7.00676 4.82455 5.94151 4.52636 4.83933 4.82159C3.27977 5.23934 2.07866 7.1483 2.63736 9.23274C3.24411 11.4965 5.29519 13.0673 7.21117 14.0801C7.2691 12.9147 7.54561 11.7318 8.17771 10.6373C9.62557 8.13031 12.7117 7.26024 14.9042 8.52572C15.0914 8.63376 15.2672 8.75132 15.4318 8.87743C15.6767 7.8681 15.7283 6.8217 15.4545 5.80017Z" fill="#FF5243"/>
</svg>
