<svg width="42" height="43" viewBox="0 0 42 43" fill="none" xmlns="http://www.w3.org/2000/svg">
<path d="M21 0.5C32.5982 0.5 42 9.90181 42 21.5C42 33.0982 32.5982 42.5 21 42.5C9.40181 42.5 0 33.0982 0 21.5C0 9.90181 9.40181 0.5 21 0.5Z" fill="#1B1B1B"/>
<path d="M21 11.862C24.1405 11.862 24.5142 11.862 25.7533 11.9341C26.5008 11.9407 27.2416 12.0784 27.9366 12.3406C28.9594 12.7405 29.7658 13.547 30.1658 14.5698C30.428 15.2713 30.5657 16.0056 30.5723 16.753C30.6313 17.9922 30.6444 18.3659 30.6444 21.5064C30.6444 24.6469 30.6444 25.0206 30.5723 26.2597C30.5657 27.0072 30.428 27.748 30.1658 28.443C29.7658 29.4658 28.9594 30.2722 27.9366 30.6722C27.2351 30.9344 26.5008 31.0721 25.7533 31.0787C24.5142 31.1377 24.1405 31.1508 21 31.1508C17.8595 31.1508 17.4858 31.1508 16.2466 31.0787C15.4992 31.0721 14.7583 30.9344 14.0634 30.6722C13.0406 30.2722 12.2341 29.4658 11.8342 28.443C11.572 27.7415 11.4343 27.0072 11.4277 26.2597C11.3687 25.0206 11.3556 24.6469 11.3556 21.5064C11.3556 18.3659 11.3556 17.9922 11.4277 16.753C11.4343 16.0056 11.572 15.2647 11.8342 14.5698C12.2341 13.547 13.0406 12.7405 14.0634 12.3406C14.7649 12.0784 15.4992 11.9407 16.2466 11.9341C17.4858 11.8751 17.8661 11.862 21 11.862ZM21 9.74429C17.807 9.74429 17.4071 9.74429 16.1548 9.81641C15.1779 9.83608 14.2142 10.0197 13.2963 10.3671C11.7031 10.9769 10.4443 12.2357 9.83452 13.8289C9.49359 14.7402 9.30346 15.7106 9.28379 16.6875C9.23134 17.9397 9.21167 18.3397 9.21167 21.5326C9.21167 24.7256 9.21167 25.1255 9.28379 26.3778C9.30346 27.3547 9.48704 28.3184 9.83452 29.2363C10.4443 30.8295 11.7031 32.0883 13.2963 32.6981C14.2076 33.039 15.1779 33.2291 16.1548 33.2488C17.4071 33.3013 17.807 33.3209 21 33.3209C24.1929 33.3209 24.5929 33.3209 25.8451 33.2488C26.822 33.2291 27.7858 33.0456 28.7037 32.6981C30.2969 32.0883 31.5557 30.8295 32.1655 29.2363C32.5064 28.325 32.6965 27.3547 32.7162 26.3778C32.7686 25.1255 32.7883 24.7256 32.7883 21.5326C32.7883 18.3397 32.7883 17.9397 32.7162 16.6875C32.6965 15.7106 32.5129 14.7468 32.1655 13.8289C31.5557 12.2357 30.2969 10.9769 28.7037 10.3671C27.7924 10.0262 26.822 9.83608 25.8451 9.81641C24.5929 9.7574 24.1929 9.74429 21 9.74429Z" fill="#D9D9D9"/>
<path d="M21 15.4618C17.6628 15.4618 14.9616 18.163 14.9616 21.5002C14.9616 24.8373 17.6628 27.5386 21 27.5386C24.3372 27.5386 27.0384 24.8373 27.0384 21.5002C27.0384 18.1695 24.3372 15.4618 21 15.4618ZM21 25.4209C18.8364 25.4209 17.0793 23.6638 17.0793 21.5002C17.0793 19.3366 18.8364 17.5795 21 17.5795C23.1636 17.5795 24.9207 19.3366 24.9207 21.5002C24.9207 23.6638 23.1636 25.4209 21 25.4209Z" fill="#D9D9D9"/>
<path d="M28.2294 16.2745C28.8081 15.7482 28.8505 14.8525 28.3242 14.2739C27.7979 13.6952 26.9022 13.6528 26.3236 14.1791C25.7449 14.7054 25.7025 15.6011 26.2288 16.1797C26.7551 16.7584 27.6508 16.8008 28.2294 16.2745Z" fill="#D9D9D9"/>
</svg>
