<svg width="148" height="43" viewBox="0 0 148 43" fill="none" xmlns="http://www.w3.org/2000/svg">
<path d="M18.0283 17.4254L19.2004 15.9977L19.7247 15.3598L19.7864 15.2687L20.1257 14.8738C20.2491 14.7523 20.1874 14.5397 20.0332 14.4485L19.8789 14.327L19.4471 14.1144L19.5397 14.2359L18.5526 15.1776L17.103 14.2663C16.9179 14.1448 16.702 14.1144 16.5169 14.1751L14.8822 14.6004C14.6355 14.6612 14.4196 14.8738 14.3579 15.1168L13.8644 16.8787L11.8595 16.8179L11.1192 15.1776C11.0267 14.9953 10.8725 14.8434 10.6874 14.7827L8.49751 14.0536C8.37414 14.0233 8.25076 13.9929 8.09654 14.0233L6.06084 14.4485L4.45695 12.9297L5.41312 11.259C5.50565 11.1071 5.53649 10.8945 5.50565 10.7426L5.19721 9.31489C5.16636 9.10225 5.01214 8.88961 4.79624 8.79848L3.56248 8.22133L4.30273 6.7025L5.22805 6.91514C5.38227 6.94551 5.53649 6.94551 5.69071 6.88476L4.14851 5.63932C4.02514 5.57857 3.68585 5.73045 3.59332 5.85196L2.97644 6.7025L0.570614 10.3173C0.570614 10.3173 0.570613 10.3173 0.539769 10.3477L0.046266 11.0463C-0.015422 11.1375 -0.015422 11.259 0.046266 11.3197L0.323861 11.745C0.385549 11.8361 0.508925 11.8665 0.601457 11.8665L1.49593 11.7146C1.61931 11.6843 1.77353 11.7754 1.80437 11.8969L2.08197 12.6259C2.11281 12.6867 2.11281 12.7778 2.08197 12.8386L1.06412 15.1472C1.03327 15.2383 1.03327 15.3598 1.09496 15.4206L3.13066 17.6988C3.19235 17.79 3.31573 17.8203 3.40826 17.7899L5.38227 17.2432C5.44396 17.2432 5.50565 17.2432 5.56734 17.2735L7.91148 18.2456C8.00401 18.276 8.03485 18.3367 8.0657 18.3975L8.52836 19.7948C8.5592 19.8859 8.65173 19.9771 8.77511 19.9771L11.5819 20.1593L12.5689 20.2201C12.6614 20.2201 12.754 20.1897 12.8157 20.1289L13.0933 19.7948L14.4504 18.1241C14.4812 18.0633 14.5121 18.0633 14.5738 18.0633L15.2215 17.9115L15.8384 16.8179L17.5656 17.3647C17.6273 17.3951 17.689 17.3951 17.7507 17.3951L18.0283 17.4254Z" fill="#713CE9"/>
<path d="M40.637 32.1583C40.637 32.1887 40.6062 32.219 40.5753 32.2494L35.4552 37.6261C35.3319 37.7779 35.0851 37.8083 34.9 37.7172L32.9877 36.6236C32.8952 36.5933 32.8026 36.5629 32.741 36.5629L31.2296 36.6844C31.1062 36.6844 31.0137 36.7451 30.9212 36.8363L28.1761 39.9043C28.0835 40.0258 27.9293 40.0562 27.7751 40.0562L21.7297 39.236C21.5446 39.2056 21.3904 39.0841 21.3595 38.9019L20.7735 36.5933C20.7427 36.4718 20.6501 36.3502 20.5267 36.2895L16.8872 34.4669C16.7946 34.4061 16.7021 34.4061 16.6096 34.4365L13.3401 35.0441C13.155 35.0744 13.0008 35.0137 12.8774 34.8922L9.85474 31.004C9.7622 30.8521 9.73136 30.6698 9.82389 30.5179L11.5512 27.1765C11.6128 27.0854 11.6128 26.9639 11.582 26.8424L11.2119 25.5969C11.1502 25.3843 10.9651 25.2628 10.7184 25.2628L9.23786 25.4147C9.05279 25.4147 8.89857 25.3539 8.80604 25.202L8.40507 24.5034C8.31254 24.3515 8.31254 24.1692 8.43591 24.0174L9.20701 22.8934C9.20701 22.8934 9.20701 22.863 9.23786 22.863L11.582 20.1899L13.556 17.9117L14.8206 16.4536L15.0057 16.2409C15.0365 16.2106 15.0365 16.2106 15.0674 16.2106C15.2216 16.0891 15.4375 16.0587 15.5917 16.1802L17.6891 17.4864C17.6274 17.4864 17.5657 17.4864 17.504 17.456L15.7768 16.9092L15.1599 18.0028L14.142 19.7646L16.3628 21.0101C16.6096 21.1316 16.7638 21.405 16.8255 21.648L17.1648 23.987C17.1956 24.1996 17.1339 24.4122 17.0105 24.5945L15.1291 27.3588L17.8125 30.3357L21.3287 29.88C21.4829 29.8497 21.668 29.88 21.7914 29.9408L25.2459 31.3685C25.4618 31.4596 25.6468 31.6419 25.7394 31.8849L26.7881 34.801L30.3968 35.1959L31.5072 32.1887C31.5997 31.8849 31.8773 31.6722 32.1858 31.6115L34.8692 31.0951C35.1159 31.0647 35.3627 31.0951 35.5786 31.247L38.0153 33.0392L40.0818 31.3077L40.5136 31.5811C40.6987 31.6723 40.7604 31.9456 40.637 32.1583Z" fill="#713CE9"/>
<path d="M42.4259 24.9589L41.5006 21.5871C41.408 21.2226 41.0687 20.9796 40.6986 20.9492L37.46 20.7366L35.6094 18.7621L35.7636 16.3016C35.7944 15.9675 35.6402 15.6637 35.3318 15.4814L32.2165 13.6285C31.9081 13.4462 31.5071 13.4766 31.1987 13.6892L29.348 15.1777L26.6029 14.6613L24.5672 12.383C24.3513 12.14 24.0429 12.0489 23.7344 12.1096L20.7117 12.6868C20.4341 12.7475 20.2182 12.8994 20.0949 13.1424C20.0332 13.2336 20.0023 13.3551 20.0023 13.4766L19.8789 14.3271L19.8173 15.2384V15.2992L19.7556 15.3295L18.2442 16.1801L17.8432 16.3927L16.0543 15.8156C15.7459 15.7244 15.4066 15.7852 15.1907 15.9978C15.129 16.0586 15.0673 16.1193 15.0056 16.2105L14.8822 16.4231L14.0186 17.9116L13.2166 19.3089C13.1241 19.4608 13.0933 19.6126 13.1241 19.7949C13.1241 19.8557 13.1241 19.9164 13.155 19.9772C13.2166 20.1898 13.3709 20.4024 13.5868 20.5239L15.8692 21.7998L16.1777 24.0172L14.2653 26.8423C14.0494 27.1764 14.0803 27.6017 14.327 27.9054L17.1338 31.0039C17.3189 31.2165 17.6273 31.338 17.9049 31.2772L21.4211 30.7912L24.814 32.2189L25.8627 35.1351C25.9861 35.4692 26.2636 35.6818 26.6029 35.7122L30.4276 36.1375C30.4584 36.1375 30.4893 36.1375 30.5201 36.1375C30.8902 36.1375 31.2295 35.8945 31.3529 35.5603L32.4633 32.4923L34.9925 32.0367L37.46 33.8593C37.7993 34.1023 38.2311 34.0719 38.5704 33.8289L40.6369 32.1278L40.8528 31.9455C41.1921 31.6721 41.2538 31.2165 41.0379 30.8216L39.4957 28.2092L39.9584 27.0245L41.9632 25.9613C42.3642 25.7791 42.5493 25.3538 42.4259 24.9589ZM39.434 26.1436C39.249 26.2347 39.0947 26.417 39.033 26.5993L38.5087 27.9054C38.4162 28.1485 38.447 28.4218 38.5704 28.6649L40.0817 31.2165L40.0509 31.2469L37.9844 32.9783L35.5477 31.1861C35.3318 31.0342 35.085 30.9735 34.8383 31.0342L32.1548 31.5506C31.8464 31.6114 31.5688 31.824 31.4763 32.1278L30.3659 35.1351L26.7571 34.7402L25.7085 31.824C25.6159 31.6114 25.4617 31.3988 25.215 31.3076L21.7604 29.8799C21.6371 29.8192 21.452 29.7888 21.2978 29.8192L17.7816 30.2748L15.0981 27.2979L16.9796 24.5336C17.103 24.3514 17.1338 24.1388 17.1338 23.9261L16.7945 21.5871C16.7637 21.3137 16.5786 21.0707 16.3319 20.9492L14.1111 19.7038L15.129 17.9419L15.7459 16.8484L17.4731 17.3952C17.5348 17.4255 17.5965 17.4255 17.6582 17.4255C17.7507 17.4559 17.8432 17.4255 17.9358 17.3952C18.0283 17.3952 18.09 17.3648 18.1517 17.304L20.2799 16.1193C20.5267 15.9675 20.7117 15.7244 20.7426 15.4207L20.8968 13.6588L23.7036 13.1121L25.6776 15.3295C25.801 15.4814 25.9861 15.5726 26.1711 15.6029L29.0704 16.1497C29.3172 16.2105 29.5948 16.1497 29.8107 15.9675L31.6613 14.5094L34.6532 16.2712L34.499 18.7013C34.4681 18.9444 34.5607 19.1874 34.7149 19.3393L36.6272 21.4049C36.7814 21.5567 36.9973 21.6782 37.2133 21.6782L40.5444 21.982L41.408 25.1108L39.434 26.1436Z" fill="#713CE9"/>
<path d="M31.379 25.4842C32.1916 23.9907 31.1463 21.8808 29.0443 20.7715C26.9423 19.6622 24.5796 19.9736 23.767 21.4671C22.9544 22.9605 23.9997 25.0705 26.1017 26.1798C28.2037 27.2891 30.5664 26.9777 31.379 25.4842Z" fill="#713CE9"/>
<path d="M21.1435 10.1962L20.4341 8.16096C20.3416 7.8572 20.064 7.64456 19.7247 7.67494H17.7815L16.6712 6.64214V5.18406C16.6712 4.91067 16.5169 4.63728 16.2702 4.54615L14.2345 3.51335C13.9569 3.39184 13.6176 3.42222 13.4017 3.63485L12.3838 4.57653L10.78 4.39427L9.45367 3.14883C9.26861 2.96657 8.99101 2.90582 8.74426 2.96657L6.89362 3.45259C6.55434 3.54372 6.33843 3.84749 6.33843 4.15126V5.18406L5.32058 5.85234L4.27189 5.60933C3.9326 5.5182 3.56248 5.70046 3.40826 6.00423L2.88391 7.06741L2.42125 7.97871C2.32872 8.16097 2.32872 8.3736 2.3904 8.55586C2.45209 8.73812 2.60631 8.89 2.79138 8.98113L4.17935 9.61904L4.42611 10.8037L3.40826 12.5656C3.25404 12.8693 3.28488 13.2339 3.53163 13.4465L5.41311 15.2387C5.59818 15.3906 5.84493 15.4817 6.09168 15.421L8.21991 14.9957L10.2248 15.664L10.965 17.3347C11.0884 17.5777 11.3352 17.76 11.6128 17.7903L13.5559 17.8511L13.9877 17.8815H14.0186C14.3579 17.8815 14.6663 17.6688 14.728 17.3347L15.0673 16.1196L15.0981 15.9677L15.2215 15.5121L16.5786 15.1476L18.1208 16.1196H18.1517C18.4293 16.3019 18.7994 16.2411 19.0461 16.0285L19.1387 15.9374L20.3724 14.7527C20.6192 14.5097 20.65 14.0844 20.465 13.811L20.064 13.1731L19.5088 12.3833L19.6939 11.7758L20.8351 11.0771C21.1435 10.8949 21.2669 10.5303 21.1435 10.1962ZM19.0461 10.986C18.8919 11.0771 18.7994 11.229 18.7377 11.3809L18.491 12.2314C18.4293 12.4441 18.4601 12.6871 18.5835 12.8693L19.4471 14.1451L19.5397 14.2667L18.5526 15.2083L17.103 14.297C16.9179 14.1755 16.702 14.1452 16.5169 14.2059L14.8822 14.6312C14.6355 14.6919 14.4196 14.9046 14.3579 15.1476L13.8644 16.9094L11.8595 16.8183L11.1192 15.178C11.0267 14.9957 10.8725 14.8438 10.6874 14.7831L8.49751 14.054C8.37413 14.0236 8.25076 13.9933 8.09654 14.0236L6.06084 14.4489L4.45695 12.9301L5.41311 11.2594C5.50565 11.1075 5.53649 10.8949 5.50565 10.743L5.19721 9.31527C5.16636 9.10264 5.01214 8.89 4.79623 8.79887L3.56248 8.22172L4.30273 6.70289L5.22805 6.91553C5.38227 6.9459 5.53649 6.9459 5.69071 6.88515C5.7524 6.85477 5.78324 6.85477 5.84493 6.82439L7.10953 6.00423C7.32544 5.88272 7.44882 5.63971 7.44882 5.3967V4.45502L8.89848 4.06013L10.1322 5.27519C10.2556 5.3967 10.4098 5.45745 10.5641 5.48783L12.3838 5.70046C12.5998 5.73084 12.8465 5.67008 13.0007 5.5182L13.9877 4.63728L15.6842 5.45745L15.715 6.85477C15.715 7.06741 15.8075 7.24967 15.9309 7.40155L17.2264 8.58624C17.3806 8.70774 17.5656 8.7685 17.7507 8.7685H19.5705L20.1565 10.4088L19.0461 10.986Z" fill="#713CE9"/>
<path d="M14.1632 11.0943C14.6004 10.129 13.8576 8.86446 12.504 8.26983C11.1505 7.67521 9.69883 7.97569 9.26162 8.94098C8.8244 9.90626 9.56722 11.1708 10.9207 11.7654C12.2743 12.3601 13.7259 12.0596 14.1632 11.0943Z" fill="#713CE9"/>
<path d="M55.3759 32V9.6H70.5119V13.824H60.0479V27.776H70.7359V32H55.3759ZM57.6159 22.624V18.528H68.9759V22.624H57.6159ZM76.3284 32V9.6H91.4644V13.824H81.0004V27.776H91.6884V32H76.3284ZM78.5684 22.624V18.528H89.9284V22.624H78.5684ZM104.545 32.32C103.158 32.32 101.889 32.1493 100.737 31.808C99.6062 31.4667 98.5929 30.9653 97.6969 30.304C96.8222 29.6427 96.0329 28.8427 95.3289 27.904L98.3369 24.48C99.3822 25.9307 100.417 26.9227 101.441 27.456C102.486 27.968 103.617 28.224 104.833 28.224C105.494 28.224 106.081 28.1387 106.593 27.968C107.126 27.776 107.542 27.5093 107.841 27.168C108.14 26.8267 108.289 26.4213 108.289 25.952C108.289 25.6107 108.214 25.3013 108.065 25.024C107.916 24.7253 107.702 24.4693 107.425 24.256C107.148 24.0213 106.817 23.8187 106.433 23.648C106.049 23.456 105.622 23.296 105.153 23.168C104.684 23.0187 104.172 22.9013 103.617 22.816C102.422 22.5387 101.377 22.208 100.481 21.824C99.5849 21.4187 98.8382 20.928 98.2409 20.352C97.6435 19.7547 97.1955 19.0827 96.8969 18.336C96.6195 17.5893 96.4809 16.7467 96.4809 15.808C96.4809 14.848 96.6942 13.9627 97.1209 13.152C97.5475 12.32 98.1342 11.6053 98.8809 11.008C99.6489 10.4107 100.524 9.952 101.505 9.632C102.508 9.312 103.564 9.152 104.673 9.152C106.038 9.152 107.233 9.312 108.257 9.632C109.281 9.93066 110.166 10.368 110.913 10.944C111.681 11.52 112.321 12.224 112.833 13.056L109.793 16C109.345 15.4027 108.854 14.9013 108.321 14.496C107.809 14.0907 107.244 13.792 106.625 13.6C106.028 13.3867 105.409 13.28 104.769 13.28C104.065 13.28 103.457 13.376 102.945 13.568C102.433 13.7387 102.028 13.9947 101.729 14.336C101.452 14.6773 101.313 15.0933 101.313 15.584C101.313 15.968 101.409 16.3093 101.601 16.608C101.793 16.9067 102.07 17.1733 102.433 17.408C102.796 17.6213 103.233 17.8133 103.745 17.984C104.257 18.1547 104.822 18.304 105.441 18.432C106.614 18.6667 107.67 18.976 108.609 19.36C109.548 19.744 110.348 20.2133 111.009 20.768C111.692 21.3013 112.214 21.9413 112.577 22.688C112.94 23.4133 113.121 24.2347 113.121 25.152C113.121 26.6667 112.758 27.9573 112.033 29.024C111.308 30.0907 110.305 30.912 109.025 31.488C107.745 32.0427 106.252 32.32 104.545 32.32ZM115.452 32L124.22 9.6H128.508L137.244 32H132.316L127.804 19.936C127.676 19.5947 127.516 19.1573 127.324 18.624C127.154 18.0907 126.972 17.5253 126.78 16.928C126.588 16.3307 126.407 15.7653 126.236 15.232C126.066 14.6773 125.938 14.2187 125.852 13.856L126.716 13.824C126.588 14.3147 126.439 14.8267 126.268 15.36C126.119 15.872 125.959 16.4053 125.788 16.96C125.618 17.4933 125.436 18.016 125.244 18.528C125.052 19.04 124.871 19.5413 124.7 20.032L120.188 32H115.452ZM119.516 27.296L121.084 23.424H131.356L132.956 27.296H119.516Z" fill="#D9D9D9"/>
</svg>
