<svg width="50" height="50" viewBox="0 0 50 50" fill="none" xmlns="http://www.w3.org/2000/svg">
<path fill-rule="evenodd" clip-rule="evenodd" d="M17 47.3962H33C38.5417 47.3962 41.0833 45.3128 42.2083 43.5837C43.875 41.042 43.8125 37.5628 42.0625 33.542L34.1042 15.3337C36.3542 14.6878 38.1875 12.917 38.7292 10.6878C39.2708 8.45866 38.625 6.14616 37 4.52116C35.7708 3.29199 34.125 2.60449 32.3958 2.60449H17.5833C14 2.60449 11.0833 5.52116 11.0833 9.10449C11.0833 10.8337 11.7917 12.5003 12.9792 13.7087C13.7926 14.5201 14.8059 15.1023 15.9167 15.3962L11.0479 26.4559C10.949 26.6041 10.8751 26.7694 10.8323 26.9456L7.93751 33.5212C6.16667 37.5628 6.10417 41.042 7.75001 43.5837C8.87501 45.3128 11.4167 47.3962 17 47.3962ZM13.3907 28.8699L10.7917 34.7712C9.47917 37.7712 9.31251 40.292 10.3542 41.8753C11.6458 43.8545 14.6667 44.2712 16.9792 44.2712H32.9792C35.2708 44.2712 38.2708 43.8545 39.5833 41.8753C40.625 40.2712 40.4792 37.7712 39.1875 34.792L36.7955 29.3034C35.2264 30.114 32.2803 31.3315 28.8334 31.3315C27.4584 31.3315 25.9792 31.144 24.5 30.644C19.9813 29.1325 15.3532 28.8969 13.3907 28.8699ZM14.7544 25.7735C17.2745 25.8877 21.3853 26.3002 25.4792 27.6649C29.7179 29.0832 33.8927 27.2867 35.5381 26.4183L30.4167 14.667C30.3138 14.4287 30.2718 14.1686 30.2943 13.9101C30.3169 13.6516 30.4033 13.4027 30.5458 13.1858C30.6883 12.9689 30.8825 12.7908 31.1109 12.6675C31.3392 12.5443 31.5947 12.4796 31.8542 12.4795H32.1875C33.8542 12.4795 35.3542 11.417 35.7083 9.93783C36 8.75033 35.6667 7.58366 34.8125 6.72949C34.4989 6.4129 34.1258 6.16154 33.7146 5.98991C33.3034 5.81828 32.8623 5.72977 32.4167 5.72949H17.5833C15.7292 5.72949 14.2083 7.25033 14.2083 9.10449C14.2083 10.0003 14.5833 10.8753 15.1875 11.5003C15.8125 12.1253 16.6875 12.4795 17.5833 12.4795H18.2083C18.7292 12.4795 19.2292 12.7503 19.5208 13.1878C19.8125 13.6253 19.8542 14.1878 19.6458 14.667L14.7544 25.7735Z" fill="url(#paint0_linear_1420_11311)"/>
<defs>
<linearGradient id="paint0_linear_1420_11311" x1="18.2271" y1="47.3962" x2="30.6245" y2="47.3962" gradientUnits="userSpaceOnUse">
<stop stop-color="#FF5243"/>
<stop offset="1" stop-color="#DA20B1"/>
</linearGradient>
</defs>
</svg>
