<svg width="50" height="50" viewBox="0 0 50 50" fill="none" xmlns="http://www.w3.org/2000/svg">
<path fill-rule="evenodd" clip-rule="evenodd" d="M31.7708 16.667C31.7708 17.5212 32.4791 18.2295 33.3333 18.2295C34.1875 18.2295 34.8958 17.5212 34.8958 16.667V15.2716C38.5776 15.8662 38.8374 18.0073 39.2051 21.0361L39.2083 21.0628L40.7511 33.9191H16.6666C15.8125 33.9191 15.1041 34.6274 15.1041 35.4816C15.1041 36.3357 15.8125 37.0441 16.6666 37.0441H41.1216C41.3603 39.5082 40.9725 41.3251 39.9583 42.4587C38.8958 43.6462 37.0208 44.2503 34.3541 44.2503H15.625C12.9583 44.2503 11.0833 43.6462 10.0208 42.4587C8.95831 41.2712 8.58331 39.3337 8.89581 36.6878L10.7708 21.0628C11.1406 18.0337 11.4063 15.868 15.1041 15.2706V16.667C15.1041 17.5212 15.8125 18.2295 16.6666 18.2295C17.5208 18.2295 18.2291 17.5212 18.2291 16.667V15.1045H31.7708V16.667ZM34.8958 12.1172V9.37533C34.8958 5.39616 32.1041 2.60449 28.125 2.60449H21.875C17.8958 2.60449 15.1041 5.39616 15.1041 9.37533V12.1217C9.14894 12.8843 8.17011 16.6063 7.68747 20.7087L5.81247 36.3337C5.37497 39.8962 6.02081 42.6462 7.68747 44.542C9.35414 46.4378 12.0416 47.3962 15.625 47.3962H34.3541C37.9583 47.3962 40.625 46.4378 42.3541 44.542C44.0208 42.667 44.6458 39.8962 44.2291 36.3337L42.3541 20.7087C41.8519 16.5981 40.8682 12.8694 34.8958 12.1172ZM18.2291 11.9795H31.7708V9.37533C31.7708 7.12533 30.375 5.72949 28.125 5.72949H21.875C19.625 5.72949 18.2291 7.12533 18.2291 9.37533V11.9795Z" fill="url(#paint0_linear_1420_11299)"/>
<defs>
<linearGradient id="paint0_linear_1420_11299" x1="17.9211" y1="47.3962" x2="30.9299" y2="47.3962" gradientUnits="userSpaceOnUse">
<stop stop-color="#FF5243"/>
<stop offset="1" stop-color="#DA20B1"/>
</linearGradient>
</defs>
</svg>
