<svg width="25" height="24" viewBox="0 0 25 24" fill="none" xmlns="http://www.w3.org/2000/svg">
<path d="M12.25 2C6.74 2 2.25 6.49 2.25 12C2.25 17.51 6.74 22 12.25 22C17.76 22 22.25 17.51 22.25 12C22.25 6.49 17.76 2 12.25 2ZM17.03 9.7L11.36 15.37C11.2194 15.5105 11.0288 15.5893 10.83 15.5893C10.6312 15.5893 10.4406 15.5105 10.3 15.37L7.47 12.54C7.33052 12.3989 7.2523 12.2084 7.2523 12.01C7.2523 11.8116 7.33052 11.6211 7.47 11.48C7.76 11.19 8.24 11.19 8.53 11.48L10.83 13.78L15.97 8.64C16.26 8.35 16.74 8.35 17.03 8.64C17.32 8.93 17.32 9.4 17.03 9.7Z" fill="#D9D9D9"/>
</svg>
