<svg width="42" height="43" viewBox="0 0 42 43" fill="none" xmlns="http://www.w3.org/2000/svg">
<path d="M21 0.5C32.5982 0.5 42 9.90181 42 21.5C42 33.0982 32.5982 42.5 21 42.5C9.40181 42.5 0 33.0982 0 21.5C0 9.90181 9.40181 0.5 21 0.5Z" fill="#1B1B1B"/>
<path d="M32.7621 14.2094C31.8836 14.5962 30.946 14.8519 29.9888 14.9699C30.9984 14.3668 31.7524 13.4161 32.113 12.295C31.1623 12.8588 30.1264 13.2522 29.0446 13.4685C27.222 11.5279 24.1667 11.4295 22.2195 13.2587C21.2491 14.1701 20.6984 15.442 20.6984 16.7729C20.6984 17.1467 20.7378 17.5138 20.823 17.8744C16.9482 17.6843 13.3291 15.8616 10.8704 12.8588C9.5985 15.0552 10.2476 17.8679 12.3522 19.284C11.5851 19.2578 10.8377 19.0546 10.1624 18.6808V18.7464C10.1624 21.0411 11.7818 23.0211 14.0372 23.4735C13.3291 23.6637 12.5816 23.6899 11.8605 23.5588C12.4899 25.5257 14.2994 26.8697 16.3647 26.9091C14.6535 28.2466 12.5489 28.9678 10.3787 28.9678C9.99188 28.9678 9.61162 28.9415 9.22479 28.8956C11.4343 30.3184 14.0109 31.0724 16.64 31.0658C25.537 31.0658 30.3756 23.7161 30.3756 17.3368C30.3756 17.127 30.3756 16.9172 30.3756 16.7074C31.3066 16.019 32.113 15.1732 32.7621 14.2094Z" fill="#D9D9D9"/>
</svg>
