<svg width="24" height="25" viewBox="0 0 24 25" fill="none" xmlns="http://www.w3.org/2000/svg">
<path fill-rule="evenodd" clip-rule="evenodd" d="M6.21901 6.72576C6.35942 6.58575 6.54976 6.5071 6.74821 6.5071C6.94667 6.5071 7.137 6.58575 7.27742 6.72576L11.9903 11.4311L16.7032 6.72576C16.7718 6.6523 16.8545 6.59338 16.9463 6.55252C17.0382 6.51165 17.1374 6.48968 17.2379 6.48791C17.3385 6.48614 17.4383 6.5046 17.5316 6.54221C17.6248 6.57981 17.7095 6.63578 17.7807 6.70678C17.8518 6.77778 17.9078 6.86235 17.9455 6.95545C17.9832 7.04854 18.0017 7.14826 17.9999 7.24865C17.9981 7.34904 17.9761 7.44805 17.9352 7.53976C17.8942 7.63147 17.8352 7.71402 17.7617 7.78246L13.0487 12.4878L17.7617 17.1931C17.8352 17.2616 17.8942 17.3441 17.9352 17.4358C17.9761 17.5275 17.9981 17.6265 17.9999 17.7269C18.0017 17.8273 17.9832 17.927 17.9455 18.0201C17.9078 18.1132 17.8518 18.1978 17.7807 18.2688C17.7095 18.3398 17.6248 18.3958 17.5316 18.4334C17.4383 18.471 17.3385 18.4894 17.2379 18.4877C17.1374 18.4859 17.0382 18.4639 16.9463 18.4231C16.8545 18.3822 16.7718 18.3233 16.7032 18.2498L11.9903 13.5445L7.27742 18.2498C7.13546 18.3819 6.94769 18.4538 6.75368 18.4504C6.55967 18.447 6.37457 18.3685 6.23736 18.2315C6.10015 18.0945 6.02156 17.9097 6.01814 17.716C6.01471 17.5223 6.08673 17.3349 6.21901 17.1931L10.9319 12.4878L6.21901 7.78246C6.07877 7.64228 6 7.45224 6 7.25411C6 7.05598 6.07877 6.86595 6.21901 6.72576Z" fill="#8A8A8A"/>
</svg>
