<svg width="42" height="43" viewBox="0 0 42 43" fill="none" xmlns="http://www.w3.org/2000/svg">
<path d="M21 0.5C32.5982 0.5 42 9.90181 42 21.5C42 33.0982 32.5982 42.5 21 42.5C9.4018 42.5 3.42698e-06 33.0982 3.42698e-06 21.5C-0.00655293 9.90181 9.39525 0.5 21 0.5Z" fill="#1B1B1B"/>
<path d="M32.7555 26.1941C32.749 28.0496 31.2476 29.551 29.3921 29.5575H12.5882C10.7328 29.551 9.23135 28.0496 9.22479 26.1941V16.8054C9.23135 14.95 10.7328 13.4486 12.5882 13.442H29.3921C31.2476 13.4486 32.749 14.95 32.7555 16.8054V26.1941ZM18.5676 24.378L24.9273 21.0867L18.5676 17.7954V24.378Z" fill="#D9D9D9"/>
</svg>
